PathFileType	4	(X/Y/Z)	F:\Vicon\SynologyDrive\Marcel_BSc\Ayumi_25_09_2024\25-09-2024\conventional_dl_80kg03.trc
DataRate	CameraRate	NumFrames	NumMarkers	Units	OrigDataRate	OrigDataStartFrame	OrigNumFrames
200.0	200.0	97	1	mm	200.0	701	2801	
Frame#	Time	RBAR			
		X1	Y1	Z1	
701	3.495	183.51216	247.02356	-1697.9773
702	3.5	183.49712	246.96577	-1697.9058
703	3.505	183.42487	246.95607	-1697.9218
704	3.51	183.34293	246.95309	-1697.9149
705	3.515	183.24965	246.95813	-1697.9225
706	3.52	183.17537	246.9585	-1697.9299
707	3.525	183.08614	246.95753	-1697.9333
708	3.53	183.00351	246.9581	-1697.9464
709	3.535	182.91788	246.94873	-1697.9558
710	3.54	182.82991	246.95441	-1697.9651
711	3.545	182.74403	246.94753	-1697.9703
712	3.55	182.65117	246.95346	-1697.9781
713	3.555	182.54837	246.95395	-1697.9895
714	3.56	182.44041	246.94849	-1697.9916
715	3.565	182.31741	246.9483	-1697.9941
716	3.57	182.2151	246.95493	-1698.0059
717	3.575	182.11411	246.95346	-1698.0055
718	3.58	182.01479	246.94945	-1698.0217
719	3.585	181.90771	246.93974	-1698.0276
720	3.59	181.80713	246.93648	-1698.0344
721	3.595	181.70297	246.94228	-1698.0413
722	3.6	181.58127	246.94836	-1698.0476
723	3.605	181.47005	246.9514	-1698.0312
724	3.61	181.3495	246.95544	-1698.0615
725	3.615	181.22557	246.96249	-1698.068
726	3.62	181.1026	246.96411	-1698.0709
727	3.625	180.97552	246.96584	-1698.0645
728	3.63	180.85252	246.966	-1698.0696
729	3.635	180.73183	246.96082	-1698.0702
730	3.64	180.63396	246.96133	-1698.0717
731	3.645	180.53233	246.96106	-1698.0629
732	3.65	180.43243	246.96249	-1698.0704
733	3.655	180.32495	246.95895	-1698.0669
734	3.66	180.1976	246.96663	-1698.0732
735	3.665	180.08163	246.97749	-1698.0748
736	3.67	179.96902	246.98633	-1698.0698
737	3.675	179.8535	246.9975	-1698.0653
738	3.68	179.73979	247.00232	-1698.0651
739	3.685	179.63289	247.01033	-1698.0795
740	3.69	179.53151	247.01163	-1698.0625
741	3.695	179.41466	247.01529	-1698.0551
742	3.7	179.30533	247.01276	-1698.0503
743	3.705	179.20898	247.01624	-1698.0498
744	3.71	179.10832	247.00711	-1698.0237
745	3.715	178.9859	247.02495	-1698.0204
746	3.72	178.87141	247.01648	-1697.9868
747	3.725	178.75874	247.02194	-1697.963
748	3.73	178.6436	247.0206	-1697.9452
749	3.735	178.51863	247.01581	-1697.9337
750	3.74	178.40486	247.0168	-1697.9175
751	3.745	178.29649	247.01591	-1697.8928
752	3.75	178.18895	247.01439	-1697.8881
753	3.755	178.10243	247.01665	-1697.8684
754	3.76	177.99236	247.02295	-1697.8646
755	3.765	177.90738	247.0163	-1697.84
756	3.77	177.81018	247.01768	-1697.8285
757	3.775	177.72382	247.01961	-1697.8094
758	3.78	177.63528	247.00912	-1697.7791
759	3.785	177.53896	247.0134	-1697.7614
760	3.79	177.44223	247.01622	-1697.7352
761	3.795	177.35851	247.00227	-1697.7113
762	3.8	177.26192	247.00357	-1697.7013
763	3.805	177.1765	246.99849	-1697.6838
764	3.81	177.09253	246.99353	-1697.6699
765	3.815	177.01746	246.98236	-1697.6505
766	3.82	176.93669	246.98181	-1697.6348
767	3.825	176.85556	246.97353	-1697.621
768	3.83	176.77461	246.96152	-1697.6003
769	3.835	176.69756	246.94533	-1697.5787
770	3.84	176.61838	246.95049	-1697.5684
771	3.845	176.5515	246.95547	-1697.5533
772	3.85	176.4744	246.94398	-1697.5309
773	3.855	176.39165	246.93642	-1697.522
774	3.86	176.31438	246.9127	-1697.5085
775	3.865	176.23315	246.89879	-1697.4865
776	3.87	176.15387	246.89095	-1697.4811
777	3.875	176.08702	246.88309	-1697.4786
778	3.88	176.02203	246.88286	-1697.4697
779	3.885	175.95242	246.88306	-1697.4679
780	3.89	175.89088	246.88326	-1697.4771
781	3.895	175.82034	246.8849	-1697.4717
782	3.9	175.75533	246.87006	-1697.4647
783	3.905	175.69702	246.86365	-1697.4789
784	3.91	175.62547	246.84641	-1697.4768
785	3.915	175.55959	246.84236	-1697.498
786	3.92	175.48915	246.83319	-1697.5032
787	3.925	175.42613	246.8306	-1697.5261
788	3.93	175.36288	246.82448	-1697.541
789	3.935	175.29504	246.80956	-1697.5636
790	3.94	175.24078	246.8033	-1697.5718
791	3.945	175.19507	246.78867	-1697.5874
792	3.95	175.14546	246.78644	-1697.6046
793	3.955	175.10211	246.77298	-1697.6222
794	3.96	175.05392	246.77246	-1697.6545
795	3.965	175.00807	246.77328	-1697.678
796	3.97	174.96368	246.76605	-1697.6927
797	3.975	174.91495	246.75275	-1697.7122
